<?xml version="1.0" standalone="no"?>
<!DOCTYPE svg PUBLIC "-//W3C//DTD SVG 20010904//EN"
 "http://www.w3.org/TR/2001/REC-SVG-20010904/DTD/svg10.dtd">
<svg version="1.0" xmlns="http://www.w3.org/2000/svg"
 width="297.000000pt" height="316.000000pt" viewBox="0 0 297.000000 316.000000"
 preserveAspectRatio="xMidYMid meet">

<g transform="translate(0.000000,316.000000) scale(0.100000,-0.100000)"
fill="#000000" stroke="none">
<path d="M1420 3097 c-347 -233 -663 -353 -1076 -408 l-92 -13 -6 -60 c-14
-140 -18 -666 -7 -793 62 -672 289 -1110 781 -1507 92 -74 346 -246 422 -286
l48 -25 47 25 c27 13 113 68 193 122 644 430 928 887 1006 1618 13 125 15 216
10 475 -3 176 -9 345 -12 376 l-6 56 -92 12 c-403 53 -738 179 -1068 403 -32
21 -63 41 -70 43 -7 3 -42 -14 -78 -38z m187 -151 c290 -181 574 -287 915
-342 92 -14 107 -20 113 -38 4 -11 9 -160 12 -331 6 -316 -2 -456 -34 -635 -8
-47 -19 -106 -23 -132 -15 -81 -99 -319 -150 -423 -162 -328 -447 -618 -848
-864 l-102 -63 -78 48 c-231 142 -434 303 -578 459 -87 94 -193 234 -235 310
-156 285 -225 520 -260 888 -12 128 -7 681 7 738 5 25 12 27 112 43 59 9 130
21 157 27 55 12 361 107 385 120 8 4 55 26 103 48 99 45 243 126 327 183 30
20 56 37 57 37 2 1 56 -32 120 -73z"/>
<path d="M1425 2829 c-227 -149 -627 -302 -889 -339 -32 -5 -63 -13 -68 -18
-6 -6 -10 -133 -11 -308 -1 -365 19 -540 84 -767 18 -60 22 -67 36 -55 22 18
343 343 488 494 66 68 125 124 130 124 6 0 74 -66 153 -147 l144 -147 244 248
c134 136 244 251 244 255 0 4 -22 29 -50 56 -55 54 -60 65 -29 65 11 0 60 9
107 20 48 12 107 25 132 31 25 6 61 14 80 19 19 4 53 11 76 15 l41 6 -19 -93
c-25 -126 -57 -274 -70 -326 l-11 -43 -59 58 -58 58 -315 -315 -315 -315 -144
144 c-79 79 -148 142 -152 140 -5 -2 -132 -129 -282 -281 l-274 -277 27 -52
c76 -153 193 -307 337 -445 96 -93 312 -259 425 -327 67 -41 68 -41 133 3 14
9 52 35 84 56 228 149 470 381 582 556 49 76 154 280 154 298 0 6 4 18 10 28
22 40 65 194 95 338 32 154 50 494 38 734 l-8 155 -35 7 c-19 4 -62 12 -95 19
-271 54 -546 160 -786 304 -60 36 -110 65 -111 64 -2 0 -30 -18 -63 -40z m105
-273 c0 -29 4 -35 28 -41 37 -9 102 -52 101 -68 0 -6 -14 -23 -30 -36 l-30
-23 -24 22 c-55 52 -167 28 -152 -32 7 -27 25 -36 112 -60 71 -19 135 -81 135
-132 0 -20 -7 -50 -15 -66 -19 -36 -75 -80 -103 -80 -17 0 -21 -7 -24 -37 -3
-35 -6 -38 -35 -41 -29 -3 -33 0 -33 22 0 38 -10 56 -33 56 -26 0 -104 46
-116 68 -8 14 -3 24 24 45 29 23 35 25 46 11 25 -31 90 -56 125 -49 39 7 66
41 58 72 -6 20 -66 53 -97 53 -7 0 -37 12 -65 26 -60 30 -82 63 -82 123 0 49
43 104 95 121 29 9 35 17 35 39 0 36 6 41 47 41 31 0 33 -2 33 -34z m560
-1296 l0 -401 -97 3 -98 3 -3 398 -2 397 100 0 100 0 0 -400z m-670 -155 l0
-246 -97 3 -98 3 -3 230 c-1 126 0 235 2 242 4 9 33 13 101 13 l95 0 0 -245z
m338 -47 l-3 -193 -97 -3 -98 -3 0 196 0 195 100 0 100 0 -2 -192z m-668 -48
l0 -150 -105 0 -105 0 0 143 c0 79 3 147 7 150 3 4 51 7 105 7 l98 0 0 -150z"/>
</g>
</svg>
